<svg viewBox="0 0 100 100" xmlns="http://www.w3.org/2000/svg">
    <defs>
        <linearGradient id="linear" x1="0%" y1="0%" x2="100%" y2="100%">
            <stop offset="20%" stop-color="#ef32d9" />
            <stop offset="80%" stop-color="#89fffd" />
        </linearGradient>
    </defs>
    <path fill="url(#linear)"
          d="M31.9,-56.6C34.4,-53.8,24.7,-31.2,26.2,-18.5C27.8,-5.8,40.6,-2.9,39.2,-0.8C37.8,1.3,22.2,2.5,18.2,11C14.2,19.4,21.7,35.1,20.6,35.4C19.5,35.8,9.8,21,-0.3,21.5C-10.4,22,-20.7,38,-23.9,38.8C-27,39.5,-22.9,25.2,-26.3,16.2C-29.7,7.2,-40.6,3.6,-47.4,-3.9C-54.3,-11.5,-56.9,-22.9,-49.4,-24.8C-41.8,-26.6,-24.1,-18.8,-14.1,-17.2C-4.2,-15.7,-2.1,-20.5,6.3,-31.4C14.7,-42.4,29.4,-59.4,31.9,-56.6Z"
          transform="translate(60 60)"/>
</svg>